<svg xmlns="http://www.w3.org/2000/svg" viewBox="0 0 32 32" role="img" aria-label="ABDAN">
  <title>ABDAN</title>
  <!-- Emerald background -->
  <rect width="32" height="32" rx="6" fill="#023d3a"/>
  <!-- Gold border ring hint -->
  <rect x="1.5" y="1.5" width="29" height="29" rx="5" fill="none" stroke="#c5a13b" stroke-width="0.8" opacity="0.6"/>
  <!-- Simplified calligraphic mark — gold, legible at 16–32px -->
  <g fill="#c5a13b">
    <!-- Left arc / crescent body -->
    <path d="M14 7 C10 7 7 10 7 14 C7 19 10 23 13 25 C14.5 26 16 26 17 25 C18 24 18 22 17 21 C16 20 14 19 13 17 C12 15 12 13 14 11 C15.5 10 17 11 17.5 13 C18 15 16.5 17 16 18 C15 20 16 22 18 22 C20 22 22 20 22 17 C22 12 19 7 14 7 Z"/>
    <!-- Right upper sweep -->
    <path d="M18 22 C20 21 22 19 23 17 C24 15 23 12 21 11 C20 10 18.5 11 18.5 12.5 C18.5 14 20 15 20 17 C20 19 19 21 18 22 Z"/>
    <!-- Lower flourish tail -->
    <path d="M17 25 C17.5 26.5 18 28 17 29 C16 30 15 29 15 28 C15 27 16 26 17 25 Z"/>
  </g>
</svg>
